<?xml version="1.0" encoding="UTF-8" standalone="no"?>
<!-- Created with Inkscape (http://www.inkscape.org/) -->

<svg
   width="200mm"
   height="30mm"
   viewBox="0 0 200 30"
   version="1.1"
   id="svg5"
   xml:space="preserve"
   inkscape:version="1.2.2 (b0a8486541, 2022-12-01)"
   sodipodi:docname="logobg.svg"
   xmlns:inkscape="http://www.inkscape.org/namespaces/inkscape"
   xmlns:sodipodi="http://sodipodi.sourceforge.net/DTD/sodipodi-0.dtd"
   xmlns="http://www.w3.org/2000/svg"
   xmlns:svg="http://www.w3.org/2000/svg"><sodipodi:namedview
     id="namedview7"
     pagecolor="#000000"
     bordercolor="#000000"
     borderopacity="0.25"
     inkscape:showpageshadow="2"
     inkscape:pageopacity="0"
     inkscape:pagecheckerboard="0"
     inkscape:deskcolor="#d1d1d1"
     inkscape:document-units="mm"
     showgrid="false"
     inkscape:zoom="1.3986842"
     inkscape:cx="353.54656"
     inkscape:cy="119.39793"
     inkscape:window-width="1920"
     inkscape:window-height="1128"
     inkscape:window-x="0"
     inkscape:window-y="40"
     inkscape:window-maximized="1"
     inkscape:current-layer="layer1" /><defs
     id="defs2" /><g
     inkscape:label="Layer 1"
     inkscape:groupmode="layer"
     id="layer1"
     style="display:inline"
     transform="translate(-27.372808,-127.32636)"><rect
       style="display:inline;font-weight:bold;font-size:25.989px;line-height:1;font-family:'Cooper Hewitt';-inkscape-font-specification:'Cooper Hewitt weight=713';text-align:center;text-anchor:middle;fill:#000000;fill-opacity:1;stroke:none;stroke-width:1.25;stroke-miterlimit:3;stroke-dasharray:none;stroke-opacity:1"
       id="rect15495"
       width="172.0063"
       height="34.882446"
       x="23.541477"
       y="148.04848"
       transform="scale(1.1627481,0.86003151)" /><g
       aria-label="VERONIKA"
       transform="scale(1.1627481,0.86003151)"
       id="text356"
       style="font-weight:bold;font-size:25.989px;line-height:1;font-family:'Cooper Hewitt';-inkscape-font-specification:'Cooper Hewitt weight=713';text-align:center;text-anchor:middle;display:inline;fill:#ff0000;fill-opacity:1;stroke:none;stroke-width:3.15709;stroke-miterlimit:3"><g
         id="g15410"
         transform="translate(18.35029,6.342244)"><path
           style="color:#000000;-inkscape-font-specification:'Cooper Hewitt weight=713';fill:#fffff0;-inkscape-stroke:none"
           d="m 23.541016,148.28711 11.294921,21.625 h 5.8125 v -0.62305 l 0.01367,-21.00195 h -5.003906 l 0.261719,14.30273 -7.220703,-14.30273 z m 2.0625,1.25 h 2.328125 l 8.105468,16.05664 1.183594,-0.29297 -0.289062,-15.76367 h 2.480468 l -0.01367,19.125 H 35.59375 Z"
           id="path1846" /><path
           style="color:#000000;-inkscape-font-specification:'Cooper Hewitt weight=713';fill:#fffff0;-inkscape-stroke:none"
           d="m 42.759766,148.28711 0.146484,0.74414 4.052734,20.77734 h 13.333985 l -0.837891,-4.29101 h -8.576172 l -0.888672,-4.54492 h 7.279297 l -0.833984,-4.26563 h -7.275391 l -0.80664,-4.12891 h 8.576171 l -0.83789,-4.29101 z m 1.517578,1.25 H 55.0625 l 0.349609,1.79101 h -8.576172 l 1.292969,6.62891 h 7.277344 l 0.345703,1.76563 h -7.277344 l 1.375,7.04492 h 8.576172 l 0.34961,1.79101 H 47.990234 Z"
           id="path1848" /><path
           style="color:#000000;-inkscape-font-specification:'Cooper Hewitt weight=713';fill:#fffff0;-inkscape-stroke:none"
           d="m 59.677734,148.28711 2.806641,21.52148 h 4.744141 l -0.986329,-7.5625 h 1.869141 l 3.896484,7.5625 h 5.195313 l -4.574219,-8.51172 c 0.725216,-0.41325 1.390457,-0.95099 1.824219,-1.76171 0.553308,-1.03416 0.764728,-2.38625 0.541016,-4.10157 l -0.06641,-0.52148 c -0.354158,-2.71551 -1.577368,-4.44889 -3.142578,-5.41992 -1.56521,-0.97103 -3.407885,-1.20508 -5.054687,-1.20508 z m 1.423828,1.25 h 5.628907 c 1.523852,0 3.134005,0.23436 4.396484,1.01758 1.262479,0.78322 2.243584,2.08922 2.560547,4.51953 l 0.06836,0.51953 c 0.199976,1.53331 -0.0016,2.59898 -0.404297,3.35156 -0.402658,0.75259 -1.015773,1.23043 -1.791015,1.55274 l -0.638672,0.26562 4.189453,7.79492 h -2.339844 l -3.898437,-7.5625 H 64.81836 l 0.0918,0.70508 0.894531,6.85742 h -2.222656 z m 2.455079,1.79101 1.027343,7.87696 h 0.548828 2.988282 c 0.751835,0 1.663799,-0.12234 2.390625,-0.72656 0.726825,-0.60422 1.127596,-1.67786 0.935547,-3.1504 l -0.03711,-0.28515 c -0.19205,-1.47254 -0.840716,-2.46691 -1.658203,-3.02539 -0.817487,-0.55849 -1.742306,-0.68946 -2.494141,-0.68946 z m 1.423828,1.25 h 2.277343 c 0.599592,0 1.265588,0.11504 1.789063,0.47266 0.523475,0.35763 0.965977,0.94997 1.123047,2.1543 l 0.03711,0.28515 c 0.15707,1.20433 -0.118964,1.71546 -0.49414,2.02735 -0.375176,0.31189 -0.992205,0.4375 -1.591797,0.4375 h -2.439453 z"
           id="path1850" /><path
           style="color:#000000;-inkscape-font-specification:'Cooper Hewitt weight=713';fill:#fffff0;-inkscape-stroke:none"
           d="m 85.462891,148.04883 c -2.66703,0 -4.758079,0.81291 -6.025391,2.60937 -1.267312,1.79646 -1.696499,4.42995 -1.464844,8.00977 l 0.06641,1.03906 c 0.231656,3.57982 1.009028,6.20394 2.482422,7.96875 1.473395,1.76481 3.629846,2.57031 6.296875,2.57031 2.654651,0 4.738389,-0.81505 6.001953,-2.61132 1.263565,-1.79628 1.692592,-4.42799 1.460938,-8.00782 l -0.06641,-1.04101 c -0.231655,-3.57982 -1.008789,-6.20212 -2.478516,-7.9668 -1.469726,-1.76468 -3.618786,-2.57031 -6.273437,-2.57031 z m 0,1.25 c 2.413198,0 4.100189,0.66314 5.314453,2.12109 1.214263,1.45795 1.967028,3.81085 2.189453,7.24805 l 0.06836,1.03906 c 0.222425,3.4372 -0.234934,5.78263 -1.238281,7.20899 -1.003347,1.42635 -2.565317,2.08007 -4.978516,2.08007 -2.426809,0 -4.120797,-0.66327 -5.33789,-2.12109 -1.217094,-1.45782 -1.970933,-3.81085 -2.19336,-7.24805 l -0.06836,-1.04101 c -0.222426,-3.4372 0.234141,-5.78086 1.240234,-7.20703 1.006094,-1.42618 2.577098,-2.08008 5.003907,-2.08008 z m 0.06641,1.79101 c -1.588417,0 -2.823035,0.77398 -3.429688,2.10743 -0.606653,1.33344 -0.717296,3.13897 -0.566406,5.4707 l 0.06641,1.03906 c 0.15089,2.33173 0.503502,4.13976 1.267578,5.44727 0.764077,1.30751 2.03463,2.05078 3.623047,2.05078 h 0.234375 c 1.588418,0 2.823035,-0.77398 3.429688,-2.10742 0.606653,-1.33345 0.719249,-3.13898 0.568359,-5.47071 l -0.06836,-1.04101 c -0.15089,-2.33174 -0.501549,-4.1378 -1.265625,-5.44532 -0.764076,-1.30751 -2.036583,-2.05078 -3.625,-2.05078 z m 0,1.25 h 0.234375 c 1.244381,0 1.957329,0.42614 2.544922,1.43164 0.587592,1.00551 0.952551,2.65416 1.097656,4.89649 l 0.06836,1.03906 c 0.145105,2.24233 -0.01333,3.89348 -0.458984,4.87305 -0.445658,0.97957 -1.046635,1.375 -2.291016,1.375 h -0.234375 c -1.244381,0 -1.957329,-0.42614 -2.544922,-1.43164 -0.587592,-1.00551 -0.952551,-2.65416 -1.097656,-4.89649 l -0.06836,-1.04101 c -0.145105,-2.24234 0.01333,-3.89152 0.458984,-4.8711 0.445659,-0.97957 1.046635,-1.375 2.291016,-1.375 z"
           id="path1852" /><path
           style="color:#000000;-inkscape-font-specification:'Cooper Hewitt weight=713';fill:#fffff0;-inkscape-stroke:none"
           d="m 97.837891,148.32422 -1.392579,21.52148 h 4.552738 l 0.66601,-10.28711 0.0703,-1.74609 5.6621,12.0332 h 4.67383 l 1.39258,-21.52148 h -0.66797 -3.88476 l -0.66602,10.28515 -0.0703,1.7461 -5.66211,-12.03125 z m 1.171875,1.25 h 2.707034 l 6.41211,13.62305 1.18945,-0.24219 0.17383,-4.2793 0.58789,-9.10156 h 2.04883 l -1.23047,19.02148 h -2.70899 l -6.41015,-13.62304 -1.18946,0.24023 -0.17382,4.28125 -0.589848,9.10156 h -2.046875 z"
           id="path1854" /><path
           style="color:#000000;-inkscape-font-specification:'Cooper Hewitt weight=713';fill:#fffff0;-inkscape-stroke:none"
           d="m 117.59961,148.32422 -3.36328,21.52148 h 4.74805 l 3.36328,-21.52148 h -0.73047 z m 1.06836,1.25 h 2.2168 l -2.97071,19.02148 h -2.21679 z"
           id="path1856" /><path
           style="color:#000000;-inkscape-font-specification:'Cooper Hewitt weight=713';fill:#fffff0;-inkscape-stroke:none"
           d="m 126.7793,148.32422 -5.65821,21.52148 h 4.77539 l 1.65235,-6.28515 1.875,-1.93946 1.63672,8.22461 h 5.16015 l -2.69922,-12.46484 8.72266,-9.05664 h -5.95508 l -6.65234,7.29297 1.91797,-7.29297 h -0.81055 z m 0.96289,1.25 h 2.18945 l -2.15039,8.18164 1.06641,0.58008 7.99414,-8.76172 h 2.46289 l -7.14649,7.41992 2.51367,11.60156 h -2.58593 l -1.90235,-9.55468 -3.76171,3.88476 -1.49024,5.66992 h -2.19141 z"
           id="path1858" /><path
           style="color:#000000;-inkscape-font-specification:'Cooper Hewitt weight=713';fill:#fffff0;-inkscape-stroke:none"
           d="m 158.84766,148.21875 -11.20899,0.008 -0.16406,0.36914 -9.50977,21.25 h 4.84375 l 2.16016,-4.62695 h 3.54492 l -1.57226,4.62695 h 4.97656 z m -1.71485,1.25 -6.12695,19.12695 h -2.31836 l 1.57227,-4.62695 h -6.0879 l -2.1582,4.62695 h -2.12305 l 8.5586,-19.11914 z m -3,2.70898 -0.88672,0.0176 -3.92968,0.084 -4.42383,9.89843 h 5.89648 z m -1.74804,1.28711 -2.49415,7.46289 h -3.07031 l 3.31446,-7.41406 z"
           id="path1860" /></g></g></g></svg>
